<svg xmlns="http://www.w3.org/2000/svg" xmlns:xlink="http://www.w3.org/1999/xlink" width="500" zoomAndPan="magnify" viewBox="0 0 375 374.999991" height="500" preserveAspectRatio="xMidYMid meet" version="1.0"><defs><g/></defs><g fill="#5e17eb" fill-opacity="1"><g transform="translate(34.794941, 231.867028)"><g><path d="M 62.125 -11.671875 L 5.0625 -36.828125 L 5.0625 -45.046875 L 62.125 -73.5625 L 62.125 -59.765625 L 22.8125 -41.546875 L 62.125 -25.40625 Z M 62.125 -11.671875 "/></g></g></g><g fill="#5e17eb" fill-opacity="1"><g transform="translate(101.960006, 231.867028)"><g/></g></g><g fill="#000000" fill-opacity="1"><g transform="translate(132.506982, 231.867028)"><g><path d="M -7.75 24.703125 C -11.351562 24.703125 -14.9375 24.1875 -18.5 23.15625 L -18.5 8.625 C -15.132812 9.382812 -11.992188 9.765625 -9.078125 9.765625 C -5.285156 9.765625 -2.210938 8.601562 0.140625 6.28125 C 2.492188 3.96875 4.207031 0.300781 5.28125 -4.71875 L 22.125 -84.015625 L 39.65625 -84.015625 L 22.234375 -2.234375 C 20.242188 7.148438 16.882812 13.984375 12.15625 18.265625 C 7.425781 22.554688 0.789062 24.703125 -7.75 24.703125 Z M -7.75 24.703125 "/></g></g></g><g fill="#000000" fill-opacity="1"><g transform="translate(171.461565, 231.867028)"><g><path d="M 30 -44.484375 L 33.21875 -44.484375 C 38.65625 -44.484375 42.929688 -45.800781 46.046875 -48.4375 C 49.171875 -51.082031 50.734375 -54.628906 50.734375 -59.078125 C 50.734375 -65.972656 47 -69.421875 39.53125 -69.421875 L 35.28125 -69.421875 Z M 68.390625 -59.53125 C 68.390625 -50.300781 65.140625 -43.050781 58.640625 -37.78125 C 52.148438 -32.507812 43.195312 -29.875 31.78125 -29.875 L 26.84375 -29.875 L 20.578125 0 L 3.046875 0 L 20.796875 -84.015625 L 40.21875 -84.015625 C 49.488281 -84.015625 56.5 -81.972656 61.25 -77.890625 C 66.007812 -73.804688 68.390625 -67.6875 68.390625 -59.53125 Z M 68.390625 -59.53125 "/></g></g></g><g fill="#000000" fill-opacity="1"><g transform="translate(239.718265, 231.867028)"><g/></g></g><g fill="#5e17eb" fill-opacity="1"><g transform="translate(270.26755, 231.867028)"><g><path d="M 5.0625 -25.40625 L 44.359375 -41.546875 L 5.0625 -59.765625 L 5.0625 -73.5625 L 62.125 -45.046875 L 62.125 -36.828125 L 5.0625 -11.671875 Z M 5.0625 -25.40625 "/></g></g></g></svg>